<svg xmlns="http://www.w3.org/2000/svg" viewBox="0 0 286 78" width="286" height="78" role="img" aria-label="Kroma Web Lab"><title>Kroma Web Lab</title><rect x="0" y="0" width="14" height="14" fill="#FFFFFF"/><rect x="0" y="16" width="14" height="14" fill="#FFFFFF"/><rect x="0" y="32" width="14" height="14" fill="#FFFFFF"/><rect x="0" y="48" width="14" height="14" fill="#FFFFFF"/><rect x="0" y="64" width="14" height="14" fill="#FFFFFF"/><rect x="16" y="0" width="14" height="14" fill="#FFFFFF"/><rect x="16" y="16" width="14" height="14" fill="#FFFFFF"/><rect x="16" y="32" width="14" height="14" fill="#FFFFFF"/><rect x="16" y="48" width="14" height="14" fill="#FFFFFF"/><rect x="16" y="64" width="14" height="14" fill="#FFFFFF"/><rect x="32" y="32" width="14" height="14" fill="#FFC53D"/><rect x="48" y="16" width="14" height="14" fill="#FFFFFF"/><rect x="48" y="48" width="14" height="14" fill="#FFFFFF"/><rect x="64" y="0" width="14" height="14" fill="#FFFFFF"/><rect x="64" y="64" width="14" height="14" fill="#FFFFFF"/><rect x="96" y="0" width="14" height="14" fill="#F25C05"/><rect x="96" y="16" width="14" height="14" fill="#F25C05"/><rect x="96" y="32" width="14" height="14" fill="#F25C05"/><rect x="96" y="48" width="14" height="14" fill="#F25C05"/><rect x="112" y="64" width="14" height="14" fill="#F25C05"/><rect x="128" y="32" width="14" height="14" fill="#F25C05"/><rect x="128" y="48" width="14" height="14" fill="#F25C05"/><rect x="144" y="64" width="14" height="14" fill="#F25C05"/><rect x="160" y="0" width="14" height="14" fill="#F25C05"/><rect x="160" y="16" width="14" height="14" fill="#F25C05"/><rect x="160" y="32" width="14" height="14" fill="#F25C05"/><rect x="160" y="48" width="14" height="14" fill="#F25C05"/><rect x="192" y="0" width="14" height="14" fill="#12B3A8"/><rect x="192" y="16" width="14" height="14" fill="#12B3A8"/><rect x="192" y="32" width="14" height="14" fill="#12B3A8"/><rect x="192" y="48" width="14" height="14" fill="#12B3A8"/><rect x="192" y="64" width="14" height="14" fill="#12B3A8"/><rect x="208" y="64" width="14" height="14" fill="#12B3A8"/><rect x="224" y="64" width="14" height="14" fill="#12B3A8"/><rect x="240" y="64" width="14" height="14" fill="#12B3A8"/><rect x="272" y="64" width="14" height="14" fill="#FFC53D"/></svg>
